<mxfile host="app.diagrams.net" modified="2024-04-24T04:18:45.203Z" agent="Mozilla/5.0 (Windows NT 10.0; Win64; x64) AppleWebKit/537.36 (KHTML, like Gecko) Chrome/124.0.0.0 Safari/537.36" version="24.2.8" etag="-aZWRV1O-qQy_dUtDwKK" type="device">
  <diagram id="6XEX_kwERIgB8tpSy7zC" name="Page-1">
    <mxGraphModel dx="1034" dy="412" grid="1" gridSize="10" guides="1" tooltips="1" connect="1" arrows="1" fold="1" page="1" pageScale="1" pageWidth="827" pageHeight="1169" math="0" shadow="0">
      <root>
        <mxCell id="0" />
        <mxCell id="1" parent="0" />
        <mxCell id="f9UltbASLGdlLFHp-OCo-13" value="" style="edgeStyle=orthogonalEdgeStyle;rounded=0;orthogonalLoop=1;jettySize=auto;html=1;" edge="1" parent="1" source="f9UltbASLGdlLFHp-OCo-1" target="f9UltbASLGdlLFHp-OCo-2">
          <mxGeometry relative="1" as="geometry" />
        </mxCell>
        <mxCell id="f9UltbASLGdlLFHp-OCo-1" value="Start" style="ellipse;whiteSpace=wrap;html=1;fillColor=#FFE599;" vertex="1" parent="1">
          <mxGeometry x="85" y="108" width="129" height="50" as="geometry" />
        </mxCell>
        <mxCell id="f9UltbASLGdlLFHp-OCo-15" value="" style="edgeStyle=orthogonalEdgeStyle;rounded=0;orthogonalLoop=1;jettySize=auto;html=1;" edge="1" parent="1" source="f9UltbASLGdlLFHp-OCo-2" target="f9UltbASLGdlLFHp-OCo-3">
          <mxGeometry relative="1" as="geometry" />
        </mxCell>
        <mxCell id="f9UltbASLGdlLFHp-OCo-2" value="Input Nama,&amp;nbsp;&lt;div&gt;Email, dan&amp;nbsp;&lt;/div&gt;&lt;div&gt;Komentar&lt;/div&gt;" style="shape=parallelogram;perimeter=parallelogramPerimeter;whiteSpace=wrap;html=1;fixedSize=1;fillColor=#FFE599;" vertex="1" parent="1">
          <mxGeometry x="90" y="200" width="120" height="60" as="geometry" />
        </mxCell>
        <mxCell id="f9UltbASLGdlLFHp-OCo-16" value="" style="edgeStyle=orthogonalEdgeStyle;rounded=0;orthogonalLoop=1;jettySize=auto;html=1;" edge="1" parent="1" source="f9UltbASLGdlLFHp-OCo-3" target="f9UltbASLGdlLFHp-OCo-4">
          <mxGeometry relative="1" as="geometry" />
        </mxCell>
        <mxCell id="f9UltbASLGdlLFHp-OCo-3" value="Cetak Nama,&amp;nbsp;&lt;div&gt;Email, dan&amp;nbsp;&lt;/div&gt;&lt;div&gt;Komentar&lt;/div&gt;" style="shape=parallelogram;perimeter=parallelogramPerimeter;whiteSpace=wrap;html=1;fixedSize=1;fillColor=#FFE599;" vertex="1" parent="1">
          <mxGeometry x="90" y="301" width="120" height="60" as="geometry" />
        </mxCell>
        <mxCell id="f9UltbASLGdlLFHp-OCo-4" value="End" style="ellipse;whiteSpace=wrap;html=1;fillColor=#FFE599;" vertex="1" parent="1">
          <mxGeometry x="86" y="401" width="129" height="50" as="geometry" />
        </mxCell>
      </root>
    </mxGraphModel>
  </diagram>
</mxfile>
